# xmcd
#
# Track frame offsets:
#	200
#	25550
#	37475
#	57050
#	77975
#	86750
#	98975
#	107375
#	132425
#	142925
#	155975
#	165425
#	176075
#
# Disc length: 2518 seconds
#
# Revision: 2
# Processed by: cddbd v1.4PL0 Copyright (c) Steve Scherf et al.
# Submitted via: audiograbber 1.81.03
#
DISCID=aa09d40d
DTITLE=Various Artist - Vanguard Blues Sampler
DYEAR=1996
DGENRE=Blues
TTITLE0=Buddy Guy - Sweet Little Angel
TTITLE1=The Johnny Shines Blues Band - Dynaflow Blues
TTITLE2=John Hammond - Back Door Man
TTITLE3=Judy Roderick - Rock Me Baby
TTITLE4=Skip James - I'm So Glad
TTITLE5=Junior Wells - I'm Your Hoochie Coochie Man
TTITLE6=Mississippi John Hurt - Corrina, Corrina
TTITLE7=Siegel-Schwall Band - I'm A King Bee
TTITLE8=Charlie Musselwhite - Juke
TTITLE9=Big Mama Thornton - Hound Dog
TTITLE10=The James Cotton Blues Quartet - Rocket 88
TTITLE11=Otis Spann - Spann's Stomp
TTITLE12=Pee Wee Crayton - Let The Good Times Roll
EXTD=
EXTT0=
EXTT1=
EXTT2=
EXTT3=
EXTT4=
EXTT5=
EXTT6=
EXTT7=
EXTT8=
EXTT9=
EXTT10=
EXTT11=
EXTT12=
PLAYORDER=
